# xmcd
#
# Track frame offsets: 
#        150
#        18029
#        32458
#        50854
#        68225
#        82891
#        94373
#        111759
#        125642
#        146524
#        161887
#        176255
#        191683
#        206867
#
# Disc length: 2986 seconds
#
# Revision: 0
# Processed by: cddbd v1.5.2PL0 Copyright (c) Steve Scherf et al.
# Submitted via: ExactAudioCopy v0.99pb4
#
DISCID=c30ba80e
DTITLE=Guano Apes - Bel Air
DYEAR=2011
DGENRE=Rock
TTITLE0=Sunday Lover
TTITLE1=Oh What A Night
TTITLE2=When The Ships Arrive
TTITLE3=This Time
TTITLE4=She's A Killer
TTITLE5=Tiger
TTITLE6=Fanman
TTITLE7=All I Wanna Do
TTITLE8=Fire In Your Eyes
TTITLE9=Carol and Shine
TTITLE10=Staring At The Sun
TTITLE11=Trust
TTITLE12=Running Out The Darkness
TTITLE13=Fire
EXTD=
EXTT0=
EXTT1=
EXTT2=
EXTT3=
EXTT4=
EXTT5=
EXTT6=
EXTT7=
EXTT8=
EXTT9=
EXTT10=
EXTT11=
EXTT12=
EXTT13=
PLAYORDER=
